# xmcd
#
# Track frame offsets:
#	150
#	19848
#	50142
#	85807
#	108073
#	148864
#	173709
#	202216
#	231674
#	264648
#
# Disc length: 3855 seconds
#
# Revision: 1
# Processed by: cddbd v1.5.1PL2 Copyright (c) Steve Scherf et al.
# Submitted via: MusicWizard 6.0.2
#
DISCID=930f0d0a
DTITLE=Sherrie Maricle and The DIVA Jazz Orchestra - TNT - A Tommy Newsom Tribute
DYEAR=2005
DGENRE=Big Band
TTITLE0=Titter Pipes
TTITLE1=Pensativa
TTITLE2=Three Shades Of Blue
TTITLE3=Moonlight
TTITLE4=Nat Cole Medley
TTITLE5=Too Late Now
TTITLE6=Trail Mix
TTITLE7=Remember Medley
TTITLE8=Come Sunday
TTITLE9=Red Door
EXTD=Sherrie Maricle dr - Karolina Strassmayer, Leigh Pilzer as - Anat Cohen, Sheila Gonzalez ts - Li
EXTD=sa Parrott bars - Liesl Whitaker, Tanya Darby, Barbara Laronga, Cindy Bradley, Jamie Dauber tp
EXTD=Deborah Weisz, Lori Stuntz tb - Leslie Havens btb - Chihiro Yamanaka p - Noriko Ueda b;
EXTT0=
EXTT1=
EXTT2=
EXTT3=
EXTT4=
EXTT5=
EXTT6=
EXTT7=
EXTT8=
EXTT9=
PLAYORDER=
